<svg width="1172" height="1074" viewBox="0 0 1172 1074" fill="none" xmlns="http://www.w3.org/2000/svg">
<path fill-rule="evenodd" clip-rule="evenodd" d="M1171.32 268.362V805.082C1171.32 953.195 1045.61 1073.44 890.754 1073.44H280.56C125.715 1073.44 0 953.195 0 805.082V268.362C0 120.249 125.715 0 280.56 0H890.754C1045.61 0 1171.32 120.249 1171.32 268.362ZM1124.99 768.872C1129.69 768.872 1134.2 767.078 1137.53 763.894C1140.85 760.719 1142.73 756.4 1142.73 751.897V560.238C1142.73 553.448 1136.97 547.942 1129.88 547.934L36.1141 546.544C32.6986 546.544 29.4212 547.837 27.0044 550.15C24.5877 552.454 23.2292 555.586 23.2292 558.857V794.405C23.2292 935.2 142.739 1049.52 289.941 1049.52H876.01C997.825 1049.52 1100.66 971.243 1132.53 864.459C1134.06 859.349 1132.99 853.835 1129.65 849.586C1126.3 845.338 1121.06 842.84 1115.5 842.84C993.854 842.823 418.58 842.823 418.58 842.823C407.913 842.823 399.252 834.538 399.252 824.335V787.36C399.252 777.148 407.913 768.872 418.58 768.872H1124.99ZM23.2292 489.656C23.2292 496.446 28.9798 501.961 36.0798 501.969L1128.86 503.385C1135.96 503.394 1141.72 497.915 1141.75 491.134L1142.73 284.171C1142.73 151.13 1036.03 41.7372 900.087 30.0835C893.929 29.5522 887.821 31.5294 883.256 35.5295C878.701 39.5296 876.121 45.1815 876.141 51.0972C876.221 79.3328 876.413 127.941 876.534 155.792C876.554 161.411 874.226 166.805 870.074 170.774C865.911 174.744 860.268 176.96 854.402 176.928L312.3 174.031C300.222 173.967 290.456 164.606 290.411 153.054L290.024 50.924C290.002 45.0285 287.396 39.4109 282.84 35.439C278.284 31.4679 272.196 29.5056 266.056 30.029C130.027 41.6353 23.2292 151.068 23.2292 284.171V489.656Z" fill="#81C3C3"/>
<path d="M250.812 783.261L265.187 783.417C264.353 786.594 263.728 789.302 263.312 791.542C262.947 793.782 262.713 795.657 262.609 797.167C262.4 798.886 262.348 800.344 262.452 801.542C262.609 802.636 262.869 803.808 263.234 805.058C263.546 806.099 264.015 807.297 264.64 808.651C265.265 810.006 266.098 811.36 267.14 812.714C266.515 812.506 265.838 812.349 265.109 812.245C264.379 812.141 263.702 812.063 263.077 812.011C262.348 811.959 261.619 811.959 260.89 812.011C260.161 812.063 259.353 812.141 258.468 812.245C257.739 812.349 256.853 812.479 255.812 812.636C254.77 812.792 253.676 813 252.531 813.261C253.312 810.917 253.911 808.886 254.327 807.167C254.796 805.448 255.135 804.016 255.343 802.87C255.551 801.516 255.682 800.422 255.734 799.589C255.734 798.547 255.734 797.375 255.734 796.073C255.734 794.719 255.734 793.417 255.734 792.167C255.734 790.917 255.708 789.823 255.656 788.886C255.603 787.896 255.499 787.271 255.343 787.011L254.562 786.229C254.249 785.969 253.781 785.604 253.156 785.136C252.583 784.615 251.801 783.99 250.812 783.261ZM256.359 771.229C257.452 770.657 258.546 770.5 259.64 770.761C260.786 771.021 261.671 771.516 262.296 772.245C262.921 772.974 263.129 773.834 262.921 774.823C262.765 775.813 261.932 776.776 260.421 777.714C258.911 778.599 257.583 778.912 256.437 778.651C255.291 778.391 254.484 777.844 254.015 777.011C253.546 776.177 253.468 775.214 253.781 774.12C254.093 772.974 254.952 772.011 256.359 771.229ZM308.312 758.339C309.301 758.391 310.369 758.417 311.515 758.417C312.504 758.417 313.624 758.443 314.874 758.495C316.176 758.495 317.531 758.443 318.937 758.339C317.687 758.912 316.593 759.745 315.656 760.839C314.718 761.933 313.963 763.026 313.39 764.12C312.661 765.422 312.062 766.776 311.593 768.183C311.333 769.016 311.124 770.5 310.968 772.636C310.812 774.719 310.682 777.167 310.577 779.979C310.525 782.792 310.499 785.761 310.499 788.886C310.499 792.011 310.525 795.006 310.577 797.87C310.629 800.683 310.708 803.183 310.812 805.37C310.916 807.558 311.046 809.094 311.202 809.979C311.411 811.021 311.671 812.011 311.984 812.948C312.244 813.782 312.583 814.641 312.999 815.526C313.416 816.36 313.937 817.037 314.562 817.558L306.593 821.151C306.176 820.578 305.838 819.979 305.577 819.354C305.317 818.782 305.109 818.261 304.952 817.792C304.744 817.219 304.614 816.698 304.562 816.229C304.458 815.604 304.353 814.927 304.249 814.198C304.145 813.417 304.015 812.688 303.859 812.011C303.754 811.282 303.676 810.683 303.624 810.214C303.572 809.745 303.572 809.459 303.624 809.354C303.676 809.25 303.364 809.719 302.687 810.761C302.01 811.75 300.994 812.922 299.64 814.276C298.338 815.578 296.723 816.854 294.796 818.104C292.869 819.302 290.708 820.058 288.312 820.37C285.864 820.683 283.598 820.214 281.515 818.964C279.484 817.714 277.739 815.969 276.281 813.729C274.822 811.438 273.702 808.808 272.921 805.839C272.192 802.818 271.906 799.745 272.062 796.62C272.166 794.537 272.635 792.688 273.468 791.073C274.301 789.407 275.343 787.974 276.593 786.776C277.895 785.526 279.301 784.485 280.812 783.651C282.374 782.766 283.885 782.037 285.343 781.464C286.853 780.891 288.26 780.474 289.562 780.214C290.864 779.953 291.906 779.771 292.687 779.667C293.624 779.615 294.692 779.771 295.89 780.136C296.932 780.448 298.129 780.969 299.484 781.698C300.89 782.427 302.452 783.521 304.171 784.979C303.859 779.771 303.572 775.604 303.312 772.479C303.051 769.302 302.791 766.881 302.531 765.214C302.27 763.235 302.036 761.881 301.827 761.151C301.567 760.631 301.228 760.11 300.812 759.589C300.447 759.172 299.978 758.756 299.406 758.339C298.885 757.87 298.26 757.506 297.531 757.245C298.885 757.506 300.187 757.688 301.437 757.792C302.687 757.896 303.833 758 304.874 758.104C306.072 758.209 307.218 758.287 308.312 758.339ZM288.702 787.479C287.713 787.844 286.906 788.469 286.281 789.354C285.708 790.24 285.239 791.308 284.874 792.558C284.51 793.756 284.249 795.058 284.093 796.464C283.989 797.818 283.911 799.146 283.859 800.448C283.859 801.698 283.859 802.844 283.859 803.886C283.859 804.927 283.859 805.709 283.859 806.229C283.859 806.542 283.911 807.115 284.015 807.948C284.171 808.729 284.484 809.563 284.952 810.448C285.421 811.282 286.072 812.037 286.906 812.714C287.791 813.391 288.963 813.729 290.421 813.729C291.619 813.625 292.895 813.209 294.249 812.479C295.447 811.854 296.801 810.865 298.312 809.511C299.874 808.104 301.541 806.099 303.312 803.495C303.208 801.828 303.129 800.448 303.077 799.354C303.077 798.261 303.051 797.375 302.999 796.698C302.947 795.917 302.921 795.292 302.921 794.823V793.651C302.921 793.339 302.921 793 302.921 792.636C302.921 792.271 302.947 791.933 302.999 791.62C301.541 790.578 300.239 789.693 299.093 788.964C297.999 788.183 296.906 787.61 295.812 787.245C294.77 786.828 293.676 786.646 292.531 786.698C291.437 786.698 290.161 786.959 288.702 787.479ZM324.796 809.589C326.671 809.328 328.129 809.641 329.171 810.526C330.265 811.412 330.786 812.636 330.734 814.198C330.682 814.979 330.525 815.604 330.265 816.073C330.004 816.542 329.64 816.907 329.171 817.167C328.754 817.375 328.234 817.558 327.609 817.714C327.036 817.818 326.359 817.922 325.577 818.026C324.796 818.183 324.041 818.157 323.312 817.948C322.583 817.688 321.932 817.323 321.359 816.854C320.786 816.386 320.317 815.865 319.952 815.292C319.64 814.719 319.484 814.146 319.484 813.573C319.484 812.948 319.64 812.427 319.952 812.011C320.317 811.542 320.76 811.151 321.281 810.839C321.853 810.474 322.426 810.214 322.999 810.058C323.624 809.849 324.223 809.693 324.796 809.589ZM329.796 791.542C330.161 792.167 330.369 792.844 330.421 793.573C330.525 794.25 330.473 794.927 330.265 795.604C330.057 796.282 329.692 796.933 329.171 797.558C328.702 798.183 328.077 798.677 327.296 799.042C325.629 799.823 324.145 800.032 322.843 799.667C321.541 799.302 320.551 798.625 319.874 797.636C319.51 797.115 319.301 796.542 319.249 795.917C319.249 795.24 319.379 794.589 319.64 793.964C319.952 793.287 320.395 792.662 320.968 792.089C321.541 791.516 322.27 791.047 323.156 790.683C324.874 789.953 326.281 789.719 327.374 789.979C328.52 790.188 329.327 790.709 329.796 791.542Z" fill="#81C3C3"/>
<path d="M415.243 832.205L540.118 832.402" stroke="#F0F7F7" stroke-width="6" stroke-linecap="round"/>
<path d="M580.845 832.205L705.72 832.402" stroke="#F0F7F7" stroke-width="6" stroke-linecap="round"/>
<path d="M912.051 832.205L1036.93 832.402" stroke="#F0F7F7" stroke-width="6" stroke-linecap="round"/>
<path d="M746.448 832.205L871.323 832.402" stroke="#F0F7F7" stroke-width="6" stroke-linecap="round"/>
<path d="M488.398 42.7129C491.133 41.8535 493.359 41.1504 495.078 40.6035C496.797 39.9785 498.203 39.4707 499.297 39.0801C500.547 38.6113 501.484 38.1816 502.109 37.791L504.922 36.3848C506.016 35.8379 507.422 35.1348 509.141 34.2754C510.859 33.3379 513.086 32.166 515.82 30.7598C515.195 33.7285 514.727 36.541 514.414 39.1973C514.18 41.7754 513.984 44.0801 513.828 46.1113C513.594 48.4551 513.477 50.6035 513.477 52.5566C513.398 54.1973 513.281 56.3848 513.125 59.1191C513.047 61.8535 512.93 64.8223 512.773 68.0254C512.617 71.2285 512.461 74.5098 512.305 77.8691C512.148 81.2285 512.031 84.3926 511.953 87.3613C511.953 90.252 511.992 92.752 512.07 94.8613C512.227 96.9707 512.5 98.416 512.891 99.1973C513.281 100.135 513.789 101.033 514.414 101.893C514.961 102.674 515.586 103.572 516.289 104.588C517.07 105.525 518.008 106.463 519.102 107.4C517.305 107.791 515.625 108.143 514.062 108.455C512.5 108.689 511.133 108.885 509.961 109.041C508.555 109.275 507.305 109.471 506.211 109.627C505.039 109.705 503.438 109.9 501.406 110.213C499.688 110.447 497.5 110.76 494.844 111.15C492.188 111.463 488.906 111.814 485 112.205C487.031 110.955 488.633 109.744 489.805 108.572C491.055 107.4 491.992 106.385 492.617 105.525C493.32 104.51 493.75 103.533 493.906 102.596C493.984 101.971 494.102 100.291 494.258 97.5566C494.492 94.7441 494.688 91.4629 494.844 87.7129C495.078 83.8848 495.273 79.8223 495.43 75.5254C495.664 71.1504 495.82 67.0879 495.898 63.3379C495.977 59.5879 496.016 56.3848 496.016 53.7285C496.016 51.0723 495.898 49.4707 495.664 48.9238C495.352 48.377 494.883 47.752 494.258 47.0488C493.711 46.4238 492.969 45.7598 492.031 45.0566C491.172 44.3535 489.961 43.5723 488.398 42.7129ZM575.352 102.479C578.164 102.088 580.352 102.557 581.914 103.885C583.555 105.213 584.336 107.049 584.258 109.393C584.18 110.564 583.945 111.502 583.555 112.205C583.164 112.908 582.617 113.455 581.914 113.846C581.289 114.158 580.508 114.432 579.57 114.666C578.711 114.822 577.695 114.979 576.523 115.135C575.352 115.369 574.219 115.33 573.125 115.018C572.031 114.627 571.055 114.08 570.195 113.377C569.336 112.674 568.633 111.893 568.086 111.033C567.617 110.174 567.383 109.314 567.383 108.455C567.383 107.518 567.617 106.736 568.086 106.111C568.633 105.408 569.297 104.822 570.078 104.354C570.938 103.807 571.797 103.416 572.656 103.182C573.594 102.869 574.492 102.635 575.352 102.479ZM582.852 75.4082C583.398 76.3457 583.711 77.3613 583.789 78.4551C583.945 79.4707 583.867 80.4863 583.555 81.502C583.242 82.5176 582.695 83.4941 581.914 84.4316C581.211 85.3691 580.273 86.1113 579.102 86.6582C576.602 87.8301 574.375 88.1426 572.422 87.5957C570.469 87.0488 568.984 86.0332 567.969 84.5488C567.422 83.7676 567.109 82.9082 567.031 81.9707C567.031 80.9551 567.227 79.9785 567.617 79.041C568.086 78.0254 568.75 77.0879 569.609 76.2285C570.469 75.3691 571.562 74.666 572.891 74.1191C575.469 73.0254 577.578 72.6738 579.219 73.0645C580.938 73.377 582.148 74.1582 582.852 75.4082ZM630.898 42.7129C633.633 41.8535 635.859 41.1504 637.578 40.6035C639.297 39.9785 640.703 39.4707 641.797 39.0801C643.047 38.6113 643.984 38.1816 644.609 37.791L647.422 36.3848C648.516 35.8379 649.922 35.1348 651.641 34.2754C653.359 33.3379 655.586 32.166 658.32 30.7598C657.695 33.7285 657.227 36.541 656.914 39.1973C656.68 41.7754 656.484 44.0801 656.328 46.1113C656.094 48.4551 655.977 50.6035 655.977 52.5566C655.898 54.1973 655.781 56.3848 655.625 59.1191C655.547 61.8535 655.43 64.8223 655.273 68.0254C655.117 71.2285 654.961 74.5098 654.805 77.8691C654.648 81.2285 654.531 84.3926 654.453 87.3613C654.453 90.252 654.492 92.752 654.57 94.8613C654.727 96.9707 655 98.416 655.391 99.1973C655.781 100.135 656.289 101.033 656.914 101.893C657.461 102.674 658.086 103.572 658.789 104.588C659.57 105.525 660.508 106.463 661.602 107.4C659.805 107.791 658.125 108.143 656.562 108.455C655 108.689 653.633 108.885 652.461 109.041C651.055 109.275 649.805 109.471 648.711 109.627C647.539 109.705 645.938 109.9 643.906 110.213C642.188 110.447 640 110.76 637.344 111.15C634.688 111.463 631.406 111.814 627.5 112.205C629.531 110.955 631.133 109.744 632.305 108.572C633.555 107.4 634.492 106.385 635.117 105.525C635.82 104.51 636.25 103.533 636.406 102.596C636.484 101.971 636.602 100.291 636.758 97.5566C636.992 94.7441 637.188 91.4629 637.344 87.7129C637.578 83.8848 637.773 79.8223 637.93 75.5254C638.164 71.1504 638.32 67.0879 638.398 63.3379C638.477 59.5879 638.516 56.3848 638.516 53.7285C638.516 51.0723 638.398 49.4707 638.164 48.9238C637.852 48.377 637.383 47.752 636.758 47.0488C636.211 46.4238 635.469 45.7598 634.531 45.0566C633.672 44.3535 632.461 43.5723 630.898 42.7129Z" fill="#F0F7F7"/>
<path d="M434.172 579.258C436.828 579.57 439.055 579.805 440.852 579.961C442.727 580.039 444.25 580.156 445.422 580.312C446.828 580.469 447.922 580.547 448.703 580.547C449.562 580.625 450.852 580.586 452.57 580.43C454.055 580.273 456.047 580.078 458.547 579.844C461.125 579.609 464.406 579.258 468.391 578.789C466.594 580.352 465.148 581.875 464.055 583.359C463.039 584.766 462.258 586.016 461.711 587.109C461.008 588.438 460.578 589.688 460.422 590.859C460.109 592.734 459.836 595.312 459.602 598.594C459.445 601.797 459.289 605.312 459.133 609.141C458.977 612.969 458.898 616.914 458.898 620.977C458.898 625.039 458.938 628.906 459.016 632.578C459.172 636.172 459.406 639.375 459.719 642.188C460.109 645 460.578 647.031 461.125 648.281C461.906 649.688 462.727 651.094 463.586 652.5C464.367 653.672 465.305 654.883 466.398 656.133C467.492 657.383 468.742 658.398 470.148 659.18C465.539 658.945 461.867 658.828 459.133 658.828H454.914C453.664 658.828 452.062 658.906 450.109 659.062C448.469 659.219 446.398 659.375 443.898 659.531C441.398 659.688 438.391 659.922 434.875 660.234C436.672 658.281 438.078 656.406 439.094 654.609C440.109 652.812 440.93 651.25 441.555 649.922C442.258 648.359 442.727 646.875 442.961 645.469C443.273 643.438 443.508 640.938 443.664 637.969C443.898 634.922 444.055 631.68 444.133 628.242C444.211 624.727 444.211 621.172 444.133 617.578C444.133 613.906 444.055 610.391 443.898 607.031C443.742 603.672 443.508 600.625 443.195 597.891C442.961 595.156 442.648 592.969 442.258 591.328C442.023 590.312 441.555 589.18 440.852 587.93C440.227 586.836 439.367 585.586 438.273 584.18C437.258 582.695 435.891 581.055 434.172 579.258ZM476.125 647.109C476.672 644.531 477.062 642.266 477.297 640.312C477.609 638.281 477.844 636.602 478 635.273C478.156 633.711 478.234 632.383 478.234 631.289C478.156 629.961 478.078 628.398 478 626.602C478 624.727 477.922 622.891 477.766 621.094C477.688 619.219 477.57 617.578 477.414 616.172C477.258 614.688 477.062 613.633 476.828 613.008C476.516 612.383 476.086 611.719 475.539 611.016C474.445 609.688 472.844 608.398 470.734 607.148C472.531 606.758 474.055 606.445 475.305 606.211C476.633 605.898 477.727 605.625 478.586 605.391C479.523 605.078 480.344 604.805 481.047 604.57C481.672 604.336 482.414 604.102 483.273 603.867C483.977 603.711 484.836 603.516 485.852 603.281C486.867 603.047 488.039 602.773 489.367 602.461L489.016 613.125C491.516 610.156 494.055 607.93 496.633 606.445C499.211 604.961 501.633 603.906 503.898 603.281C506.477 602.5 509.016 602.109 511.516 602.109C514.641 602.266 517.531 602.773 520.188 603.633C522.922 604.492 525.266 605.508 527.219 606.68C529.25 607.773 530.891 608.945 532.141 610.195C533.391 611.445 534.133 612.539 534.367 613.477C535.305 616.523 535.539 619.336 535.07 621.914C534.602 624.414 533.977 626.875 533.195 629.297C532.492 631.641 531.867 633.984 531.32 636.328C530.852 638.672 531.047 641.211 531.906 643.945C532.219 644.648 532.531 645.352 532.844 646.055C533.156 646.68 533.547 647.305 534.016 647.93C534.484 648.555 535.031 649.062 535.656 649.453C534.797 649.375 533.938 649.336 533.078 649.336C532.219 649.258 531.438 649.18 530.734 649.102C529.875 649.023 529.094 648.945 528.391 648.867C527.609 648.789 526.555 648.75 525.227 648.75C522.961 648.75 519.445 648.867 514.68 649.102C515.383 647.461 515.93 646.094 516.32 645C516.789 643.828 517.18 642.891 517.492 642.188C517.805 641.328 518.039 640.664 518.195 640.195C519.133 637.93 519.68 635.352 519.836 632.461C520.07 629.57 519.875 626.641 519.25 623.672C519.016 622.656 518.625 621.445 518.078 620.039C517.531 618.633 516.789 617.266 515.852 615.938C514.992 614.609 513.938 613.477 512.688 612.539C511.516 611.602 510.148 611.055 508.586 610.898C507.023 610.742 505.266 611.133 503.312 612.07C501.438 613.008 499.406 614.727 497.219 617.227C495.578 619.336 494.289 621.914 493.352 624.961C492.492 627.539 491.906 630.781 491.594 634.688C491.281 638.516 491.75 643.008 493 648.164C491.906 648.008 490.891 647.93 489.953 647.93C489.016 647.852 488.234 647.773 487.609 647.695C486.828 647.617 486.125 647.539 485.5 647.461C484.797 647.461 484.016 647.422 483.156 647.344C482.375 647.344 481.398 647.344 480.227 647.344C479.055 647.266 477.688 647.188 476.125 647.109ZM535.07 595.43C536.398 595.664 537.766 595.859 539.172 596.016C540.5 596.094 541.711 596.172 542.805 596.25C544.055 596.328 545.266 596.367 546.438 596.367C547.609 596.367 548.938 596.328 550.422 596.25C551.672 596.172 553.156 596.055 554.875 595.898C556.672 595.742 558.625 595.508 560.734 595.195C559.484 595.898 558.508 596.641 557.805 597.422C557.102 598.203 556.555 598.906 556.164 599.531C555.695 600.312 555.383 601.016 555.227 601.641C555.07 602.266 555.109 603.555 555.344 605.508C555.578 607.461 555.891 609.727 556.281 612.305C556.75 614.883 557.258 617.578 557.805 620.391C558.352 623.203 558.898 625.781 559.445 628.125C560.07 630.469 560.617 632.422 561.086 633.984C561.633 635.547 562.062 636.289 562.375 636.211C562.688 636.211 563.156 635.43 563.781 633.867C564.484 632.305 565.266 630.391 566.125 628.125C566.984 625.781 567.883 623.242 568.82 620.508C569.758 617.695 570.578 615.078 571.281 612.656C571.984 610.234 572.531 608.203 572.922 606.562C573.391 604.844 573.586 603.828 573.508 603.516C573.273 603.203 573 602.773 572.688 602.227C572.141 601.367 570.93 599.883 569.055 597.773C571.32 597.93 573.273 598.086 574.914 598.242C576.555 598.32 577.883 598.438 578.898 598.594C580.07 598.75 581.008 598.867 581.711 598.945C582.414 599.023 583.43 599.023 584.758 598.945C585.852 598.945 587.297 598.906 589.094 598.828C590.969 598.672 593.273 598.438 596.008 598.125C593.977 599.297 592.297 600.352 590.969 601.289C589.719 602.148 588.742 602.891 588.039 603.516C587.18 604.297 586.555 604.961 586.164 605.508C585.617 606.523 584.641 608.945 583.234 612.773C582.609 614.414 581.828 616.445 580.891 618.867C580.031 621.289 578.977 624.219 577.727 627.656C576.555 631.016 575.148 634.961 573.508 639.492C571.867 644.023 570.031 649.219 568 655.078L556.633 656.25C555.148 651.328 553.938 647.227 553 643.945C552.141 640.586 551.438 637.891 550.891 635.859C550.266 633.516 549.797 631.68 549.484 630.352C549.094 628.867 548.625 626.719 548.078 623.906C547.531 621.016 546.984 618.086 546.438 615.117C545.891 612.148 545.344 609.492 544.797 607.148C544.25 604.727 543.82 603.242 543.508 602.695C543.195 602.305 542.648 601.758 541.867 601.055C541.242 600.43 540.383 599.688 539.289 598.828C538.195 597.891 536.789 596.758 535.07 595.43ZM590.031 607.617L611.594 607.852C610.344 612.617 609.406 616.68 608.781 620.039C608.234 623.398 607.883 626.211 607.727 628.477C607.414 631.055 607.336 633.242 607.492 635.039C607.727 636.68 608.117 638.438 608.664 640.312C609.133 641.875 609.836 643.672 610.773 645.703C611.711 647.734 612.961 649.766 614.523 651.797C613.586 651.484 612.57 651.25 611.477 651.094C610.383 650.938 609.367 650.82 608.43 650.742C607.336 650.664 606.242 650.664 605.148 650.742C604.055 650.82 602.844 650.938 601.516 651.094C600.422 651.25 599.094 651.445 597.531 651.68C595.969 651.914 594.328 652.227 592.609 652.617C593.781 649.102 594.68 646.055 595.305 643.477C596.008 640.898 596.516 638.75 596.828 637.031C597.141 635 597.336 633.359 597.414 632.109C597.414 630.547 597.414 628.789 597.414 626.836C597.414 624.805 597.414 622.852 597.414 620.977C597.414 619.102 597.375 617.461 597.297 616.055C597.219 614.57 597.062 613.633 596.828 613.242L595.656 612.07C595.188 611.68 594.484 611.133 593.547 610.43C592.688 609.648 591.516 608.711 590.031 607.617ZM598.352 589.57C599.992 588.711 601.633 588.477 603.273 588.867C604.992 589.258 606.32 590 607.258 591.094C608.195 592.188 608.508 593.477 608.195 594.961C607.961 596.445 606.711 597.891 604.445 599.297C602.18 600.625 600.188 601.094 598.469 600.703C596.75 600.312 595.539 599.492 594.836 598.242C594.133 596.992 594.016 595.547 594.484 593.906C594.953 592.188 596.242 590.742 598.352 589.57ZM617.336 586.172C619.68 586.406 621.633 586.602 623.195 586.758C624.836 586.914 626.164 587.031 627.18 587.109C628.352 587.188 629.289 587.227 629.992 587.227C630.695 587.305 631.633 587.305 632.805 587.227C633.82 587.148 635.148 587.07 636.789 586.992C638.43 586.836 640.5 586.602 643 586.289C642.453 587.07 642.023 587.773 641.711 588.398C641.398 588.945 641.125 589.453 640.891 589.922L640.188 591.328C640.031 591.797 639.875 592.266 639.719 592.734C639.562 593.125 639.406 593.594 639.25 594.141C639.172 594.688 639.094 595.273 639.016 595.898H657.062L655.422 605.391L638.898 604.453C638.508 608.438 638.234 611.523 638.078 613.711C637.922 615.898 637.766 617.5 637.609 618.516L637.375 620.625C637.141 623.594 636.906 626.836 636.672 630.352C636.438 633.789 636.359 636.992 636.438 639.961C636.516 642.93 636.789 645.43 637.258 647.461C637.727 649.414 638.547 650.391 639.719 650.391C640.891 650.391 641.984 650.078 643 649.453C644.016 648.828 644.875 648.086 645.578 647.227C646.359 646.367 646.945 645.508 647.336 644.648C647.727 643.711 647.922 643.008 647.922 642.539C647.922 642.07 647.805 641.523 647.57 640.898C647.18 639.727 646.477 638.242 645.461 636.445C647.727 636.992 649.719 637.539 651.438 638.086C652.297 638.398 653.078 638.711 653.781 639.023C654.562 639.336 655.461 639.688 656.477 640.078C657.336 640.469 658.43 640.938 659.758 641.484C661.086 642.031 662.648 642.695 664.445 643.477C662.727 643.789 661.477 644.297 660.695 645C660.227 645.312 659.875 645.664 659.641 646.055C659.094 646.914 658.469 648.086 657.766 649.57C657.062 650.977 656.008 652.383 654.602 653.789C653.195 655.195 651.281 656.445 648.859 657.539C646.516 658.633 643.352 659.258 639.367 659.414C635.227 659.57 632.062 658.867 629.875 657.305C627.766 655.742 626.203 653.945 625.188 651.914C624.25 649.805 623.703 647.734 623.547 645.703C623.391 643.672 623.273 642.305 623.195 641.602C623.117 640.898 623.117 639.141 623.195 636.328C623.273 633.516 623.391 630.43 623.547 627.07C623.703 623.633 623.859 620.352 624.016 617.227C624.172 614.023 624.25 611.68 624.25 610.195C624.25 609.414 624.289 608.594 624.367 607.734C624.367 607.031 624.367 606.289 624.367 605.508C624.445 604.648 624.484 603.828 624.484 603.047L607.492 602.93L606.789 596.25L623.898 596.719C623.742 595.859 623.547 595.078 623.312 594.375C623.156 593.594 623 592.969 622.844 592.5C622.609 591.953 622.375 591.484 622.141 591.094C621.828 590.703 621.477 590.273 621.086 589.805C620.695 589.414 620.188 588.906 619.562 588.281C618.938 587.656 618.195 586.953 617.336 586.172ZM690.109 641.133C692.297 641.133 694.328 640.898 696.203 640.43C697.766 640.039 699.25 639.414 700.656 638.555C702.141 637.617 703.117 636.25 703.586 634.453C705.148 634.766 706.477 635.039 707.57 635.273C708.664 635.43 709.602 635.586 710.383 635.742C711.242 635.977 711.984 636.133 712.609 636.211C713.234 636.367 713.977 636.523 714.836 636.68C715.617 636.836 716.555 637.031 717.648 637.266C718.82 637.422 720.188 637.656 721.75 637.969C720.578 637.812 719.367 637.93 718.117 638.32C716.945 638.711 715.812 639.141 714.719 639.609C713.469 640.156 712.297 640.82 711.203 641.602C710.5 642.07 709.68 642.773 708.742 643.711C707.883 644.648 706.633 645.547 704.992 646.406C703.352 647.266 701.164 648.008 698.43 648.633C695.773 649.18 692.336 649.375 688.117 649.219C683.039 649.062 678.781 648.164 675.344 646.523C671.906 644.805 669.133 642.734 667.023 640.312C664.914 637.812 663.391 635.117 662.453 632.227C661.516 629.336 661.008 626.641 660.93 624.141C660.852 621.641 661.594 619.023 663.156 616.289C664.719 613.555 666.906 611.055 669.719 608.789C672.609 606.523 676.086 604.688 680.148 603.281C684.211 601.797 688.664 601.055 693.508 601.055C696.32 601.055 698.898 601.406 701.242 602.109C703.664 602.734 705.852 603.594 707.805 604.688C709.836 605.781 711.594 607.031 713.078 608.438C714.562 609.766 715.812 611.133 716.828 612.539C717.844 614.023 718.703 615.586 719.406 617.227C720.031 618.633 720.539 620.234 720.93 622.031C721.32 623.828 721.438 625.664 721.281 627.539C715.344 627.695 710.539 627.812 706.867 627.891C703.273 627.969 700.461 628.008 698.43 628.008H693.156H689.172C687.766 628.008 685.93 628.047 683.664 628.125C681.398 628.203 678.625 628.32 675.344 628.477C675.734 631.602 676.711 634.023 678.273 635.742C679.914 637.383 681.633 638.633 683.43 639.492C685.461 640.43 687.688 640.977 690.109 641.133ZM679.562 620.039C682.062 620.195 684.133 620.312 685.773 620.391C687.492 620.469 688.898 620.547 689.992 620.625C691.164 620.703 692.102 620.742 692.805 620.742H695.734C697.688 620.742 701.32 620.625 706.633 620.391C706.398 616.953 705.656 614.336 704.406 612.539C703.234 610.742 701.984 609.414 700.656 608.555C699.094 607.617 697.375 607.07 695.5 606.914C690.422 606.992 686.633 608.047 684.133 610.078C681.711 612.109 680.188 615.43 679.562 620.039Z" fill="#81C3C3"/>
</svg>
